<?xml version="1.0" encoding="utf-8" standalone="no"?>
<!DOCTYPE svg PUBLIC "-//W3C//DTD SVG 1.1//EN"
  "http://www.w3.org/Graphics/SVG/1.1/DTD/svg11.dtd">
<!-- Created with matplotlib (http://matplotlib.org/) -->
<svg height="489pt" version="1.1" viewBox="0 0 756 489" width="756pt" xmlns="http://www.w3.org/2000/svg" xmlns:xlink="http://www.w3.org/1999/xlink">
 <defs>
  <style type="text/css">
*{stroke-linecap:butt;stroke-linejoin:round;}
  </style>
 </defs>
 <g id="figure_1">
  <g id="patch_1">
   <path d="
M0 489.6
L756 489.6
L756 0
L0 0
z
" style="fill:#ffffff;"/>
  </g>
  <g id="axes_1">
   <g id="patch_2">
    <path d="
M94.5 428.4
L680.4 428.4
L680.4 48.96
L94.5 48.96
z
" style="fill:#78ab46;"/>
   </g>
   <g id="patch_3">
    <path clip-path="url(#p0c64b8d497)" d="
M400.289 213.87
L391.665 206.763
L396.365 204.892
L380.493 168.553
L380.498 168.551
L396.369 204.89
L401.069 203.018
z
" style="fill:#ff0000;opacity:0.8;stroke:#ff0000;"/>
   </g>
   <g id="patch_4">
    <path clip-path="url(#p0c64b8d497)" d="
M406.708 165.905
L417.119 170.323
L413.188 173.414
L423.829 185.751
L423.825 185.755
L413.184 173.417
L409.253 176.508
z
" style="fill:#ff0000;opacity:0.8;stroke:#ff0000;"/>
   </g>
   <g id="patch_5">
    <path clip-path="url(#p0c64b8d497)" d="
M528.142 221.479
L539.527 221.092
L537.414 225.515
L551.681 231.731
L551.679 231.736
L537.412 225.52
L535.298 229.943
z
" style="fill:#ff0000;opacity:0.8;stroke:#ff0000;"/>
   </g>
   <g id="patch_6">
    <path clip-path="url(#p0c64b8d497)" d="
M635.133 250.589
L626.213 243.822
L630.829 241.77
L614.802 208.91
L614.807 208.908
L630.834 241.768
L635.45 239.715
z
" style="fill:#ff0000;opacity:0.8;stroke:#ff0000;"/>
   </g>
   <g id="patch_7">
    <path clip-path="url(#p0c64b8d497)" d="
M410.453 128.195
L402.317 120.58
L407.132 118.997
L394.937 85.1924
L394.942 85.1909
L407.137 118.995
L411.951 117.412
z
" style="fill:#ff0000;opacity:0.8;stroke:#ff0000;"/>
   </g>
   <g id="patch_8">
    <path clip-path="url(#p0c64b8d497)" d="
M407.243 133.818
L407.741 122.951
L412.192 125.313
L426.499 100.738
L426.504 100.74
L412.196 125.316
L416.647 127.678
z
" style="fill:#ff0000;opacity:0.8;stroke:#ff0000;"/>
   </g>
   <g id="patch_9">
    <path clip-path="url(#p0c64b8d497)" d="
M354.818 234.38
L359.877 224.633
L362.946 228.513
L412.591 192.698
L412.594 192.702
L362.949 228.517
L366.019 232.396
z
" style="fill:#ff0000;opacity:0.8;stroke:#ff0000;"/>
   </g>
   <g id="patch_10">
    <path clip-path="url(#p0c64b8d497)" d="
M448.435 180.129
L444.447 169.94
L449.511 170.455
L451.642 151.35
L451.647 151.351
L449.516 170.455
L454.58 170.97
z
" style="fill:#ff0000;opacity:0.8;stroke:#ff0000;"/>
   </g>
   <g id="patch_11">
    <path clip-path="url(#p0c64b8d497)" d="
M529.747 326.01
L518.751 323.165
L522.141 319.536
L460.202 266.799
L460.205 266.796
L522.144 319.533
L525.533 315.904
z
" style="fill:#ff0000;opacity:0.8;stroke:#ff0000;"/>
   </g>
   <g id="patch_12">
    <path clip-path="url(#p0c64b8d497)" d="
M425.432 124.887
L428.529 135.355
L423.527 134.445
L404.571 229.418
L404.566 229.417
L423.522 134.444
L418.519 133.533
z
" style="fill:#ff0000;opacity:0.8;stroke:#ff0000;"/>
   </g>
   <g id="patch_13">
    <path clip-path="url(#p0c64b8d497)" d="
M584.312 283.999
L583.893 294.869
L579.426 292.536
L575.22 299.878
L575.216 299.876
L579.421 292.534
L574.953 290.201
z
" style="fill:#ff0000;opacity:0.8;stroke:#ff0000;"/>
   </g>
   <g id="patch_14">
    <path clip-path="url(#p0c64b8d497)" d="
M462.343 346.188
L456.703 336.737
L461.788 336.473
L459.666 299.215
L459.671 299.215
L461.793 336.473
L466.877 336.209
z
" style="fill:#ff0000;opacity:0.8;stroke:#ff0000;"/>
   </g>
   <g id="patch_15">
    <path clip-path="url(#p0c64b8d497)" d="
M576.823 208.909
L574.07 219.464
L570.2 216.303
L530.284 260.845
L530.28 260.842
L570.196 216.299
L566.327 213.138
z
" style="fill:#ff0000;opacity:0.8;stroke:#ff0000;"/>
   </g>
   <g id="patch_16">
    <path clip-path="url(#p0c64b8d497)" d="
M573.078 82.8761
L567.696 92.4631
L564.758 88.492
L496.582 134.482
L496.579 134.478
L564.755 88.488
L561.816 84.5169
z
" style="fill:#ff0000;opacity:0.8;stroke:#ff0000;"/>
   </g>
   <g id="patch_17">
    <path clip-path="url(#p0c64b8d497)" d="
M533.492 286.314
L526.553 277.687
L531.553 276.763
L511.021 175.499
L511.026 175.498
L531.558 276.762
L536.557 275.838
z
" style="fill:#ff0000;opacity:0.8;stroke:#ff0000;"/>
   </g>
   <g id="patch_18">
    <path clip-path="url(#p0c64b8d497)" d="
M526.003 238.349
L537.146 240.609
L533.972 244.412
L539.913 248.933
L539.91 248.937
L533.969 244.415
L530.795 248.217
z
" style="fill:#ff0000;opacity:0.8;stroke:#ff0000;"/>
   </g>
   <g id="patch_19">
    <path clip-path="url(#p0c64b8d497)" d="
M477.857 105.37
L484.593 96.5977
L486.92 100.923
L493.369 97.7597
L493.372 97.764
L486.922 100.927
L489.249 105.252
z
" style="fill:#ff0000;opacity:0.8;stroke:#ff0000;"/>
   </g>
   <g id="patch_20">
    <path clip-path="url(#p0c64b8d497)" d="
M562.914 98.0926
L554.555 90.7022
L559.321 88.9886
L557.562 84.5309
L557.567 84.5292
L559.325 88.9868
L564.091 87.2732
z
" style="fill:#ff0000;opacity:0.8;stroke:#ff0000;"/>
   </g>
   <g id="patch_21">
    <path clip-path="url(#p0c64b8d497)" d="
M320.046 306.162
L317.048 295.668
L322.041 296.621
L351.071 157.966
L351.076 157.967
L322.046 296.622
L327.039 297.575
z
" style="fill:#ff0000;opacity:0.8;stroke:#ff0000;"/>
   </g>
   <g id="patch_22">
    <path clip-path="url(#p0c64b8d497)" d="
M499.255 278.706
L495.584 268.409
L500.63 269.066
L511.021 196.338
L511.026 196.339
L500.635 269.066
L505.68 269.724
z
" style="fill:#ff0000;opacity:0.8;stroke:#ff0000;"/>
   </g>
   <g id="patch_23">
    <path clip-path="url(#p0c64b8d497)" d="
M511.024 161.605
L504.967 152.392
L510.035 151.922
L506.742 119.594
L506.747 119.594
L510.04 151.921
L515.108 151.451
z
" style="fill:#ff0000;opacity:0.8;stroke:#ff0000;"/>
   </g>
   <g id="patch_24">
    <path clip-path="url(#p0c64b8d497)" d="
M427.036 277.383
L422.173 267.546
L427.264 267.656
L429.709 164.251
L429.714 164.251
L427.269 267.656
L432.36 267.766
z
" style="fill:#ff0000;opacity:0.8;stroke:#ff0000;"/>
   </g>
   <g id="patch_25">
    <path clip-path="url(#p0c64b8d497)" d="
M402.429 105.37
L405.123 115.939
L400.159 114.855
L383.173 185.754
L383.168 185.752
L400.154 114.854
L395.19 113.77
z
" style="fill:#ff0000;opacity:0.8;stroke:#ff0000;"/>
   </g>
   <g id="patch_26">
    <path clip-path="url(#p0c64b8d497)" d="
M534.027 298.223
L522.637 298.449
L524.819 294.056
L496.044 281.024
L496.046 281.019
L524.822 294.051
L527.004 289.658
z
" style="fill:#ff0000;opacity:0.8;stroke:#ff0000;"/>
   </g>
   <g id="patch_27">
    <path clip-path="url(#p0c64b8d497)" d="
M322.186 180.129
L328.154 170.864
L330.841 174.995
L361.236 156.972
L361.239 156.976
L330.843 174.999
L333.53 179.129
z
" style="fill:#ff0000;opacity:0.8;stroke:#ff0000;"/>
   </g>
   <g id="patch_28">
    <path clip-path="url(#p0c64b8d497)" d="
M617.479 260.512
L617.926 271.382
L613.285 269.379
L611.062 274.076
L611.058 274.074
L613.281 269.377
L608.64 267.375
z
" style="fill:#ff0000;opacity:0.8;stroke:#ff0000;"/>
   </g>
   <g id="patch_29">
    <path clip-path="url(#p0c64b8d497)" d="
M461.273 243.642
L461.407 232.765
L465.934 234.99
L476.785 214.862
L476.789 214.864
L465.939 234.992
L470.467 237.218
z
" style="fill:#ff0000;opacity:0.8;stroke:#ff0000;"/>
   </g>
   <g id="patch_30">
    <path clip-path="url(#p0c64b8d497)" d="
M432.921 385.883
L422.046 382.644
L425.576 379.14
L340.372 300.871
L340.376 300.867
L425.58 379.136
L429.11 375.632
z
" style="fill:#ff0000;opacity:0.8;stroke:#ff0000;"/>
   </g>
   <g id="patch_31">
    <path clip-path="url(#p0c64b8d497)" d="
M352.143 363.058
L351.161 352.221
L355.895 354.013
L367.654 325.678
L367.659 325.68
L355.899 354.014
L360.633 355.806
z
" style="fill:#ff0000;opacity:0.8;stroke:#ff0000;"/>
   </g>
   <g id="patch_32">
    <path clip-path="url(#p0c64b8d497)" d="
M566.659 348.834
L569.347 359.405
L564.384 358.318
L558.637 382.245
L558.632 382.244
L564.379 358.317
L559.416 357.23
z
" style="fill:#ff0000;opacity:0.8;stroke:#ff0000;"/>
   </g>
   <g id="patch_33">
    <path clip-path="url(#p0c64b8d497)" d="
M517.978 303.516
L528.666 307.282
L524.953 310.609
L560.241 346.517
L560.238 346.52
L524.949 310.612
L521.235 313.939
z
" style="fill:#ff0000;opacity:0.8;stroke:#ff0000;"/>
   </g>
   <g id="patch_34">
    <path clip-path="url(#p0c64b8d497)" d="
M555.96 243.642
L544.696 245.273
L546.265 240.647
L527.072 234.713
L527.073 234.708
L546.267 240.642
L547.835 236.017
z
" style="fill:#ff0000;opacity:0.8;stroke:#ff0000;"/>
   </g>
   <g id="patch_35">
    <path clip-path="url(#p0c64b8d497)" d="
M366.587 132.826
L362.663 143.038
L359.172 139.499
L360.704 138.12
L360.701 138.117
L359.168 139.495
L355.676 135.956
z
" style="fill:#ff0000;opacity:0.8;stroke:#ff0000;"/>
   </g>
   <g id="patch_36">
    <path clip-path="url(#p0c64b8d497)" d="
M553.285 179.468
L545.983 187.817
L543.947 183.361
L323.792 275.07
L323.79 275.065
L543.945 183.356
L541.908 178.9
z
" style="fill:#ff0000;opacity:0.8;stroke:#ff0000;"/>
   </g>
   <g id="patch_37">
    <path clip-path="url(#p0c64b8d497)" d="
M461.273 197.331
L472.071 200.799
L468.46 204.228
L481.603 216.846
L481.6 216.849
L468.457 204.231
L464.846 207.66
z
" style="fill:#ff0000;opacity:0.8;stroke:#ff0000;"/>
   </g>
   <g id="patch_38">
    <path clip-path="url(#p0c64b8d497)" d="
M512.094 187.076
L503.515 179.919
L508.227 178.075
L489.089 133.488
L489.093 133.487
L508.232 178.073
L512.944 176.229
z
" style="fill:#ff0000;opacity:0.8;stroke:#ff0000;"/>
   </g>
   <g id="patch_39">
    <path clip-path="url(#p0c64b8d497)" d="
M549.006 149.696
L538.23 153.226
L538.906 148.407
L533.492 147.714
L533.492 147.709
L538.907 148.402
L539.583 143.583
z
" style="fill:#ff0000;opacity:0.8;stroke:#ff0000;"/>
   </g>
   <g id="patch_40">
    <path clip-path="url(#p0c64b8d497)" d="
M510.489 225.779
L509.596 214.935
L514.315 216.762
L535.629 166.566
L535.634 166.568
L514.32 216.764
L519.039 218.59
z
" style="fill:#ff0000;opacity:0.8;stroke:#ff0000;"/>
   </g>
   <g id="patch_41">
    <path clip-path="url(#p0c64b8d497)" d="
M540.981 294.584
L549.49 301.818
L544.76 303.62
L553.288 324.024
L553.283 324.026
L544.755 303.621
L540.026 305.423
z
" style="fill:#ff0000;opacity:0.8;stroke:#ff0000;"/>
   </g>
   <g id="patch_42">
    <path clip-path="url(#p0c64b8d497)" d="
M452.714 375.959
L444.337 368.588
L449.098 366.863
L422.754 300.539
L422.759 300.538
L449.103 366.862
L453.865 365.137
z
" style="fill:#ff0000;opacity:0.8;stroke:#ff0000;"/>
   </g>
   <g id="patch_43">
    <path clip-path="url(#p0c64b8d497)" d="
M442.015 341.226
L442.499 330.358
L446.953 332.715
L449.502 328.324
L449.507 328.326
L446.957 332.718
L451.411 335.075
z
" style="fill:#ff0000;opacity:0.8;stroke:#ff0000;"/>
   </g>
   <g id="patch_44">
    <path clip-path="url(#p0c64b8d497)" d="
M408.313 245.627
L410.345 234.924
L414.421 237.839
L452.177 189.721
L452.181 189.724
L414.425 237.842
L418.5 240.757
z
" style="fill:#ff0000;opacity:0.8;stroke:#ff0000;"/>
   </g>
   <g id="patch_45">
    <path clip-path="url(#p0c64b8d497)" d="
M507.814 282.014
L496.665 279.78
L499.829 275.971
L481.6 262.168
L481.603 262.164
L499.832 275.967
L502.996 272.157
z
" style="fill:#ff0000;opacity:0.8;stroke:#ff0000;"/>
   </g>
   <g id="patch_46">
    <path clip-path="url(#p0c64b8d497)" d="
M462.343 189.061
L452.224 184.064
L456.339 181.2
L412.591 123.896
L412.595 123.893
L456.343 181.197
L460.458 178.333
z
" style="fill:#ff0000;opacity:0.8;stroke:#ff0000;"/>
   </g>
   <g id="patch_47">
    <path clip-path="url(#p0c64b8d497)" d="
M511.559 92.7999
L511.234 103.673
L506.746 101.376
L498.187 116.618
L498.183 116.616
L506.742 101.373
L502.254 99.0758
z
" style="fill:#ff0000;opacity:0.8;stroke:#ff0000;"/>
   </g>
   <g id="patch_48">
    <path clip-path="url(#p0c64b8d497)" d="
M145.652 232.726
L144.75 221.882
L149.47 223.706
L189.515 129.186
L189.52 129.188
L149.475 223.707
L154.196 225.531
z
" style="fill:#ff0000;opacity:0.8;stroke:#ff0000;"/>
   </g>
   <g id="patch_49">
    <path clip-path="url(#p0c64b8d497)" d="
M559.705 356.112
L549.757 350.81
L553.966 348.072
L455.387 209.902
L455.391 209.9
L553.97 348.07
L558.178 345.332
z
" style="fill:#ff0000;opacity:0.8;stroke:#ff0000;"/>
   </g>
   <g id="patch_50">
    <path clip-path="url(#p0c64b8d497)" d="
M611.595 259.52
L601.996 265.379
L601.462 260.544
L539.377 266.8
L539.376 266.795
L601.461 260.539
L600.927 255.703
z
" style="fill:#ff0000;opacity:0.8;stroke:#ff0000;"/>
   </g>
   <g id="patch_51">
    <path clip-path="url(#p0c64b8d497)" d="
M393.869 231.733
L389.009 241.571
L385.861 237.749
L386.382 237.359
L386.379 237.355
L385.858 237.746
L382.71 233.924
z
" style="fill:#ff0000;opacity:0.8;stroke:#ff0000;"/>
   </g>
   <g id="patch_52">
    <path clip-path="url(#p0c64b8d497)" d="
M444.155 242.65
L440.929 253.082
L437.206 249.765
L428.643 258.529
L428.639 258.526
L437.202 249.762
L433.479 246.445
z
" style="fill:#ff0000;opacity:0.8;stroke:#ff0000;"/>
   </g>
   <g id="patch_53">
    <path clip-path="url(#p0c64b8d497)" d="
M375.681 191.046
L369.469 181.927
L374.529 181.379
L373.004 168.552
L373.009 168.551
L374.534 181.378
L379.594 180.83
z
" style="fill:#ff0000;opacity:0.8;stroke:#ff0000;"/>
   </g>
   <g id="patch_54">
    <path clip-path="url(#p0c64b8d497)" d="
M375.146 197
L366.461 189.96
L371.145 188.052
L363.91 171.861
L363.914 171.859
L371.15 188.05
L375.833 186.142
z
" style="fill:#ff0000;opacity:0.8;stroke:#ff0000;"/>
   </g>
   <g id="patch_55">
    <path clip-path="url(#p0c64b8d497)" d="
M500.86 328.656
L489.59 330.244
L491.178 325.624
L422.756 304.179
L422.758 304.175
L491.179 325.619
L492.767 321
z
" style="fill:#ff0000;opacity:0.8;stroke:#ff0000;"/>
   </g>
   <g id="patch_56">
    <path clip-path="url(#p0c64b8d497)" d="
M492.836 390.845
L488.811 380.669
L493.876 381.167
L495.508 366.035
L495.513 366.036
L493.882 381.167
L498.947 381.665
z
" style="fill:#ff0000;opacity:0.8;stroke:#ff0000;"/>
   </g>
   <g id="patch_57">
    <path clip-path="url(#p0c64b8d497)" d="
M654.926 95.4463
L648.259 104.266
L645.898 99.9579
L529.748 157.968
L529.746 157.964
L645.896 99.9536
L643.536 95.6452
z
" style="fill:#ff0000;opacity:0.8;stroke:#ff0000;"/>
   </g>
   <g id="patch_58">
    <path clip-path="url(#p0c64b8d497)" d="
M606.78 233.057
L595.419 233.858
L597.355 229.36
L551.144 211.226
L551.146 211.222
L597.357 229.356
L599.292 224.859
z
" style="fill:#ff0000;opacity:0.8;stroke:#ff0000;"/>
   </g>
   <g id="patch_59">
    <path clip-path="url(#p0c64b8d497)" d="
M460.738 118.602
L461.944 129.418
L457.174 127.716
L440.413 170.537
L440.408 170.536
L457.169 127.715
L452.399 126.012
z
" style="fill:#ff0000;opacity:0.8;stroke:#ff0000;"/>
   </g>
   <g id="patch_60">
    <path clip-path="url(#p0c64b8d497)" d="
M553.285 240.665
L545.626 232.613
L550.528 231.298
L540.444 197.001
L540.449 196.999
L550.533 231.297
L555.436 229.983
z
" style="fill:#ff0000;opacity:0.8;stroke:#ff0000;"/>
   </g>
   <g id="patch_61">
    <path clip-path="url(#p0c64b8d497)" d="
M600.896 151.35
L591.08 156.871
L590.731 152.02
L540.446 155.322
L540.446 155.318
L590.73 152.016
L590.381 147.165
z
" style="fill:#ff0000;opacity:0.8;stroke:#ff0000;"/>
   </g>
   <g id="patch_62">
    <path clip-path="url(#p0c64b8d497)" d="
M534.027 337.587
L534.16 326.71
L538.688 328.936
L539.374 327.662
L539.379 327.665
L538.692 328.938
L543.22 331.163
z
" style="fill:#ff0000;opacity:0.8;stroke:#ff0000;"/>
   </g>
   <g id="patch_63">
    <path clip-path="url(#p0c64b8d497)" d="
M622.294 214.863
L626.184 225.087
L621.126 224.528
L611.597 303.185
L611.592 303.185
L621.121 224.527
L616.062 223.969
z
" style="fill:#ff0000;opacity:0.8;stroke:#ff0000;"/>
   </g>
   <g id="patch_64">
    <path clip-path="url(#p0c64b8d497)" d="
M494.975 230.741
L494.154 219.892
L498.861 221.747
L509.417 197.33
L509.421 197.332
L498.866 221.749
L503.573 223.604
z
" style="fill:#ff0000;opacity:0.8;stroke:#ff0000;"/>
   </g>
   <g id="patch_65">
    <path clip-path="url(#p0c64b8d497)" d="
M358.563 176.822
L366.916 184.218
L362.149 185.928
L422.224 338.579
L422.22 338.581
L362.144 185.93
L357.378 187.64
z
" style="fill:#ff0000;opacity:0.8;stroke:#ff0000;"/>
   </g>
   <g id="patch_66">
    <path clip-path="url(#p0c64b8d497)" d="
M568.799 110.332
L570.035 121.145
L565.26 119.456
L488.558 317.079
L488.554 317.077
L565.256 119.454
L560.481 117.764
z
" style="fill:#ff0000;opacity:0.8;stroke:#ff0000;"/>
   </g>
   <g id="patch_67">
    <path clip-path="url(#p0c64b8d497)" d="
M491.231 291.938
L502.569 290.882
L500.745 295.421
L505.675 297.228
L505.674 297.233
L500.743 295.426
L498.918 299.965
z
" style="fill:#ff0000;opacity:0.8;stroke:#ff0000;"/>
   </g>
   <g id="patch_68">
    <path clip-path="url(#p0c64b8d497)" d="
M462.878 296.238
L451.533 297.221
L453.389 292.693
L322.185 243.644
L322.187 243.64
L453.391 292.689
L455.247 288.161
z
" style="fill:#ff0000;opacity:0.8;stroke:#ff0000;"/>
   </g>
   <g id="patch_69">
    <path clip-path="url(#p0c64b8d497)" d="
M435.596 332.295
L424.399 334.302
L425.797 329.627
L372.471 315.096
L372.472 315.091
L425.798 329.622
L427.196 324.947
z
" style="fill:#ff0000;opacity:0.8;stroke:#ff0000;"/>
   </g>
   <g id="patch_70">
    <path clip-path="url(#p0c64b8d497)" d="
M341.979 274.737
L350.73 281.701
L346.064 283.65
L368.194 331.963
L368.189 331.965
L346.06 283.651
L341.394 285.6
z
" style="fill:#ff0000;opacity:0.8;stroke:#ff0000;"/>
   </g>
   <g id="patch_71">
    <path clip-path="url(#p0c64b8d497)" d="
M375.681 271.098
L386.945 269.467
L385.376 274.093
L442.016 291.605
L442.014 291.609
L385.374 274.097
L383.806 278.723
z
" style="fill:#ff0000;opacity:0.8;stroke:#ff0000;"/>
   </g>
   <g id="patch_72">
    <path clip-path="url(#p0c64b8d497)" d="
M554.89 278.375
L545.98 285.153
L544.923 280.397
L523.863 284.663
L523.862 284.658
L544.922 280.392
L543.865 275.636
z
" style="fill:#ff0000;opacity:0.8;stroke:#ff0000;"/>
   </g>
   <g id="patch_73">
    <path clip-path="url(#p0c64b8d497)" d="
M620.689 188.069
L610.374 192.685
L610.503 187.824
L593.407 187.409
L593.407 187.405
L610.503 187.819
L610.632 182.958
z
" style="fill:#ff0000;opacity:0.8;stroke:#ff0000;"/>
   </g>
   <g id="patch_74">
    <path clip-path="url(#p0c64b8d497)" d="
M495.51 202.293
L487.192 209.725
L485.743 205.064
L456.995 213.211
L456.993 213.207
L485.741 205.059
L484.292 200.398
z
" style="fill:#ff0000;opacity:0.8;stroke:#ff0000;"/>
   </g>
   <g id="patch_75">
    <path clip-path="url(#p0c64b8d497)" d="
M423.827 92.7999
L433.318 98.8155
L428.902 101.236
L454.856 144.403
L454.852 144.405
L428.898 101.239
L424.482 103.66
z
" style="fill:#ff0000;opacity:0.8;stroke:#ff0000;"/>
   </g>
   <g id="patch_76">
    <path clip-path="url(#p0c64b8d497)" d="
M231.779 133.818
L230.423 123.018
L235.216 124.659
L251.035 82.5445
L251.04 82.5461
L235.221 124.661
L240.014 126.302
z
" style="fill:#ff0000;opacity:0.8;stroke:#ff0000;"/>
   </g>
   <g id="patch_77">
    <path clip-path="url(#p0c64b8d497)" d="
M554.89 197.992
L559.273 187.952
L562.601 191.632
L583.776 174.173
L583.779 174.177
L562.604 191.636
L565.932 195.316
z
" style="fill:#ff0000;opacity:0.8;stroke:#ff0000;"/>
   </g>
   <g id="patch_78">
    <path clip-path="url(#p0c64b8d497)" d="
M528.142 272.421
L520.07 264.746
L524.897 263.198
L517.441 241.989
L517.446 241.987
L524.902 263.197
L529.73 261.649
z
" style="fill:#ff0000;opacity:0.8;stroke:#ff0000;"/>
   </g>
   <g id="patch_79">
    <path clip-path="url(#p0c64b8d497)" d="
M320.581 189.061
L331.215 185.16
L330.723 189.999
L352.678 192.036
L352.678 192.04
L330.723 190.004
L330.23 194.843
z
" style="fill:#ff0000;opacity:0.8;stroke:#ff0000;"/>
   </g>
   <g id="patch_80">
    <path clip-path="url(#p0c64b8d497)" d="
M401.359 379.267
L400.79 368.403
L405.452 370.358
L416.87 345.525
L416.875 345.527
L405.457 370.36
L410.12 372.314
z
" style="fill:#ff0000;opacity:0.8;stroke:#ff0000;"/>
   </g>
   <g id="patch_81">
    <path clip-path="url(#p0c64b8d497)" d="
M401.894 372.982
L400.684 362.166
L405.455 363.867
L413.66 342.879
L413.665 342.881
L405.46 363.868
L410.23 365.569
z
" style="fill:#ff0000;opacity:0.8;stroke:#ff0000;"/>
   </g>
   <g id="patch_82">
    <path clip-path="url(#p0c64b8d497)" d="
M551.145 92.7999
L548.756 103.436
L544.78 100.397
L490.698 164.914
L490.694 164.911
L544.776 100.394
L540.8 97.3559
z
" style="fill:#ff0000;opacity:0.8;stroke:#ff0000;"/>
   </g>
   <g id="patch_83">
    <path clip-path="url(#p0c64b8d497)" d="
M454.854 141.096
L465.426 145.149
L461.615 148.375
L471.439 158.957
L471.436 158.96
L461.611 148.378
L457.801 151.603
z
" style="fill:#ff0000;opacity:0.8;stroke:#ff0000;"/>
   </g>
   <g id="patch_84">
    <path clip-path="url(#p0c64b8d497)" d="
M597.151 197
L585.883 198.598
L587.466 193.977
L546.33 181.124
L546.332 181.12
L587.468 193.972
L589.051 189.351
z
" style="fill:#ff0000;opacity:0.8;stroke:#ff0000;"/>
   </g>
   <g id="patch_85">
    <path clip-path="url(#p0c64b8d497)" d="
M412.593 108.016
L420.432 115.909
L415.56 117.324
L426.504 151.681
L426.499 151.682
L415.555 117.325
L410.683 118.74
z
" style="fill:#ff0000;opacity:0.8;stroke:#ff0000;"/>
   </g>
   <g id="patch_86">
    <path clip-path="url(#p0c64b8d497)" d="
M424.897 119.263
L434.188 125.558
L429.695 127.847
L435.063 137.456
L435.058 137.458
L429.69 127.849
L425.197 130.137
z
" style="fill:#ff0000;opacity:0.8;stroke:#ff0000;"/>
   </g>
   <g id="patch_87">
    <path clip-path="url(#p0c64b8d497)" d="
M479.997 109.34
L487.629 101.264
L489.485 105.792
L531.351 90.1513
L531.353 90.1558
L489.487 105.797
L491.342 110.325
z
" style="fill:#ff0000;opacity:0.8;stroke:#ff0000;"/>
   </g>
   <g id="patch_88">
    <path clip-path="url(#p0c64b8d497)" d="
M548.471 119.263
L548.941 130.132
L544.296 128.139
L440.413 348.835
L440.408 348.833
L544.291 128.137
L539.646 126.143
z
" style="fill:#ff0000;opacity:0.8;stroke:#ff0000;"/>
   </g>
   <g id="patch_89">
    <path clip-path="url(#p0c64b8d497)" d="
M351.073 396.799
L349.781 385.992
L354.564 387.659
L364.98 360.411
L364.984 360.413
L354.569 387.661
L359.353 389.328
z
" style="fill:#235c96;opacity:0.8;stroke:#235c96;"/>
   </g>
   <g id="patch_90">
    <path clip-path="url(#p0c64b8d497)" d="
M256.387 231.733
L261.346 221.94
L264.455 225.791
L301.321 198.652
L301.324 198.656
L264.458 225.795
L267.567 229.645
z
" style="fill:#235c96;opacity:0.8;stroke:#235c96;"/>
   </g>
   <g id="patch_91">
    <path clip-path="url(#p0c64b8d497)" d="
M545.796 224.787
L541.324 214.782
L546.407 215.075
L548.468 182.445
L548.473 182.445
L546.412 215.075
L551.495 215.368
z
" style="fill:#235c96;opacity:0.8;stroke:#235c96;"/>
   </g>
   <g id="patch_92">
    <path clip-path="url(#p0c64b8d497)" d="
M630.853 158.628
L620.022 155.256
L623.599 151.796
L574.681 105.703
L574.685 105.699
L623.602 151.792
L627.179 148.331
z
" style="fill:#235c96;opacity:0.8;stroke:#235c96;"/>
   </g>
   <g id="patch_93">
    <path clip-path="url(#p0c64b8d497)" d="
M293.833 90.8152
L305.163 89.6758
L303.375 94.2285
L446.296 145.394
L446.294 145.398
L303.373 94.2331
L301.586 98.7858
z
" style="fill:#235c96;opacity:0.8;stroke:#235c96;"/>
   </g>
   <g id="patch_94">
    <path clip-path="url(#p0c64b8d497)" d="
M342.514 177.483
L351.381 184.313
L346.749 186.332
L383.173 262.496
L383.168 262.498
L346.744 186.334
L342.112 188.354
z
" style="fill:#235c96;opacity:0.8;stroke:#235c96;"/>
   </g>
   <g id="patch_95">
    <path clip-path="url(#p0c64b8d497)" d="
M606.245 206.593
L595.373 209.84
L596.186 205.04
L432.921 179.801
L432.921 179.796
L596.187 205.036
L597.001 200.236
z
" style="fill:#235c96;opacity:0.8;stroke:#235c96;"/>
   </g>
   <g id="patch_96">
    <path clip-path="url(#p0c64b8d497)" d="
M453.249 263.49
L448.754 253.494
L453.838 253.777
L460.736 140.434
L460.741 140.434
L453.843 253.777
L458.926 254.059
z
" style="fill:#235c96;opacity:0.8;stroke:#235c96;"/>
   </g>
   <g id="patch_97">
    <path clip-path="url(#p0c64b8d497)" d="
M622.294 106.362
L614.058 113.878
L612.558 109.232
L352.679 185.755
L352.677 185.751
L612.556 109.227
L611.056 104.581
z
" style="fill:#235c96;opacity:0.8;stroke:#235c96;"/>
   </g>
   <g id="patch_98">
    <path clip-path="url(#p0c64b8d497)" d="
M500.325 225.779
L501.502 214.96
L505.797 217.572
L535.63 172.851
L535.634 172.853
L505.801 217.574
L510.096 220.186
z
" style="fill:#235c96;opacity:0.8;stroke:#235c96;"/>
   </g>
   <g id="patch_99">
    <path clip-path="url(#p0c64b8d497)" d="
M475.717 395.807
L469.546 386.663
L474.609 386.136
L464.481 297.562
L464.486 297.561
L474.614 386.135
L479.676 385.607
z
" style="fill:#235c96;opacity:0.8;stroke:#235c96;"/>
   </g>
   <g id="patch_100">
    <path clip-path="url(#p0c64b8d497)" d="
M469.298 383.568
L459.343 378.278
L463.548 375.536
L430.244 328.988
L430.248 328.985
L463.552 375.533
L467.757 372.79
z
" style="fill:#235c96;opacity:0.8;stroke:#235c96;"/>
   </g>
   <g id="patch_101">
    <path clip-path="url(#p0c64b8d497)" d="
M577.358 230.41
L574.54 240.95
L570.69 237.767
L473.579 344.866
L473.575 344.863
L570.687 237.764
L566.837 234.582
z
" style="fill:#235c96;opacity:0.8;stroke:#235c96;"/>
   </g>
   <g id="patch_102">
    <path clip-path="url(#p0c64b8d497)" d="
M592.872 345.526
L581.479 345.571
L583.738 341.213
L536.166 318.734
L536.168 318.73
L583.74 341.209
L585.999 336.851
z
" style="fill:#235c96;opacity:0.8;stroke:#235c96;"/>
   </g>
   <g id="patch_103">
    <path clip-path="url(#p0c64b8d497)" d="
M287.949 392.83
L279.447 385.59
L284.178 383.791
L221.612 233.719
L221.617 233.717
L284.183 383.79
L288.914 381.991
z
" style="fill:#235c96;opacity:0.8;stroke:#235c96;"/>
   </g>
   <g id="patch_104">
    <path clip-path="url(#p0c64b8d497)" d="
M436.131 200.97
L424.811 202.198
L426.56 197.631
L402.963 189.394
L402.964 189.389
L426.561 197.627
L428.31 193.06
z
" style="fill:#235c96;opacity:0.8;stroke:#235c96;"/>
   </g>
   <g id="patch_105">
    <path clip-path="url(#p0c64b8d497)" d="
M521.723 86.8456
L520.158 97.6201
L515.959 94.8689
L481.069 143.413
L481.065 143.41
L515.955 94.8661
L511.757 92.1149
z
" style="fill:#235c96;opacity:0.8;stroke:#235c96;"/>
   </g>
   <g id="patch_106">
    <path clip-path="url(#p0c64b8d497)" d="
M494.44 232.726
L484.532 227.357
L488.761 224.648
L450.037 169.545
L450.042 169.543
L488.765 224.645
L492.994 221.936
z
" style="fill:#235c96;opacity:0.8;stroke:#235c96;"/>
   </g>
   <g id="patch_107">
    <path clip-path="url(#p0c64b8d497)" d="
M628.178 259.52
L616.823 260.393
L618.727 255.884
L571.473 237.69
L571.475 237.685
L618.729 255.879
L620.634 251.37
z
" style="fill:#235c96;opacity:0.8;stroke:#235c96;"/>
   </g>
   <g id="patch_108">
    <path clip-path="url(#p0c64b8d497)" d="
M486.951 388.86
L481.788 379.164
L486.88 379.131
L485.879 236.364
L485.884 236.364
L486.885 379.131
L491.978 379.099
z
" style="fill:#235c96;opacity:0.8;stroke:#235c96;"/>
   </g>
   <g id="patch_109">
    <path clip-path="url(#p0c64b8d497)" d="
M483.206 312.447
L473.403 317.988
L473.043 313.138
L409.918 317.411
L409.918 317.407
L473.042 313.133
L472.682 308.283
z
" style="fill:#235c96;opacity:0.8;stroke:#235c96;"/>
   </g>
   <g id="patch_110">
    <path clip-path="url(#p0c64b8d497)" d="
M343.584 259.851
L353.225 265.646
L348.871 268.168
L408.315 361.734
L408.311 361.737
L348.867 268.17
L344.513 270.692
z
" style="fill:#235c96;opacity:0.8;stroke:#235c96;"/>
   </g>
   <g id="patch_111">
    <path clip-path="url(#p0c64b8d497)" d="
M578.963 290.945
L583.727 300.826
L578.638 300.67
L578.43 306.824
L578.425 306.823
L578.633 300.67
L573.543 300.513
z
" style="fill:#235c96;opacity:0.8;stroke:#235c96;"/>
   </g>
   <g id="patch_112">
    <path clip-path="url(#p0c64b8d497)" d="
M347.864 389.522
L352.739 379.691
L355.881 383.517
L378.354 366.695
L378.357 366.699
L355.884 383.521
L359.026 387.348
z
" style="fill:#235c96;opacity:0.8;stroke:#235c96;"/>
   </g>
   <g id="patch_113">
    <path clip-path="url(#p0c64b8d497)" d="
M294.903 293.923
L306.139 295.72
L303.14 299.65
L367.658 344.532
L367.655 344.536
L303.137 299.654
L300.139 303.583
z
" style="fill:#235c96;opacity:0.8;stroke:#235c96;"/>
   </g>
   <g id="patch_114">
    <path clip-path="url(#p0c64b8d497)" d="
M469.298 398.453
L458.386 395.326
L461.877 391.786
L359.631 299.879
L359.634 299.875
L461.88 391.783
L465.371 388.242
z
" style="fill:#235c96;opacity:0.8;stroke:#235c96;"/>
   </g>
   <g id="patch_115">
    <path clip-path="url(#p0c64b8d497)" d="
M539.911 303.516
L548.334 310.84
L543.583 312.591
L542.054 308.807
L542.049 308.809
L543.579 312.593
L538.828 314.344
z
" style="fill:#235c96;opacity:0.8;stroke:#235c96;"/>
   </g>
   <g id="patch_116">
    <path clip-path="url(#p0c64b8d497)" d="
M239.803 280.029
L251.118 278.766
L249.385 283.338
L294.369 298.882
L294.367 298.887
L249.384 283.342
L247.651 287.914
z
" style="fill:#235c96;opacity:0.8;stroke:#235c96;"/>
   </g>
   <g id="patch_117">
    <path clip-path="url(#p0c64b8d497)" d="
M359.098 396.799
L350.383 389.793
L355.059 387.867
L338.767 351.812
L338.772 351.811
L355.063 387.865
L359.739 385.939
z
" style="fill:#235c96;opacity:0.8;stroke:#235c96;"/>
   </g>
   <g id="patch_118">
    <path clip-path="url(#p0c64b8d497)" d="
M484.811 155.651
L484.323 166.518
L479.87 164.16
L368.729 355.451
L368.724 355.449
L479.866 164.157
L475.413 161.799
z
" style="fill:#235c96;opacity:0.8;stroke:#235c96;"/>
   </g>
   <g id="patch_119">
    <path clip-path="url(#p0c64b8d497)" d="
M246.223 204.608
L252.619 213.609
L247.572 214.252
L262.809 323.363
L262.804 323.364
L247.567 214.252
L242.519 214.895
z
" style="fill:#235c96;opacity:0.8;stroke:#235c96;"/>
   </g>
   <g id="patch_120">
    <path clip-path="url(#p0c64b8d497)" d="
M483.206 340.895
L471.916 339.444
L474.781 335.424
L440.944 313.441
L440.947 313.437
L474.783 335.42
L477.648 331.4
z
" style="fill:#235c96;opacity:0.8;stroke:#235c96;"/>
   </g>
   <g id="patch_121">
    <path clip-path="url(#p0c64b8d497)" d="
M507.814 311.455
L497.975 316.938
L497.646 312.086
L427.572 316.419
L427.571 316.414
L497.646 312.081
L497.317 307.229
z
" style="fill:#235c96;opacity:0.8;stroke:#235c96;"/>
   </g>
   <g id="patch_122">
    <path clip-path="url(#p0c64b8d497)" d="
M582.173 275.398
L574.852 283.733
L572.826 279.272
L468.764 322.373
L468.762 322.369
L572.824 279.268
L570.797 274.807
z
" style="fill:#235c96;opacity:0.8;stroke:#235c96;"/>
   </g>
   <g id="patch_123">
    <path clip-path="url(#p0c64b8d497)" d="
M294.903 234.38
L303.041 241.992
L298.227 243.577
L307.21 268.451
L307.205 268.452
L298.222 243.578
L293.408 245.163
z
" style="fill:#235c96;opacity:0.8;stroke:#235c96;"/>
   </g>
   <g id="patch_124">
    <path clip-path="url(#p0c64b8d497)" d="
M470.368 298.554
L463.255 307.051
L461.119 302.637
L367.658 343.875
L367.656 343.87
L461.117 302.633
L458.981 298.219
z
" style="fill:#235c96;opacity:0.8;stroke:#235c96;"/>
   </g>
   <g id="patch_125">
    <path clip-path="url(#p0c64b8d497)" d="
M460.203 159.62
L461.196 170.457
L456.46 168.669
L379.963 353.466
L379.958 353.465
L456.456 168.667
L451.72 166.88
z
" style="fill:#235c96;opacity:0.8;stroke:#235c96;"/>
   </g>
   <g id="patch_126">
    <path clip-path="url(#p0c64b8d497)" d="
M277.25 121.91
L287.912 118.078
L287.385 122.915
L367.122 130.839
L367.122 130.844
L287.384 122.919
L286.857 127.755
z
" style="fill:#235c96;opacity:0.8;stroke:#235c96;"/>
   </g>
   <g id="patch_127">
    <path clip-path="url(#p0c64b8d497)" d="
M303.463 230.41
L312.505 223.794
L313.468 228.568
L323.255 226.769
L323.256 226.774
L313.469 228.573
L314.432 233.348
z
" style="fill:#235c96;opacity:0.8;stroke:#235c96;"/>
   </g>
   <g id="patch_128">
    <path clip-path="url(#p0c64b8d497)" d="
M306.137 183.437
L313.01 192.112
L308.004 193.002
L331.283 312.447
L331.278 312.447
L307.999 193.003
L302.993 193.892
z
" style="fill:#235c96;opacity:0.8;stroke:#235c96;"/>
   </g>
   <g id="patch_129">
    <path clip-path="url(#p0c64b8d497)" d="
M397.614 332.625
L399.064 321.836
L403.292 324.546
L429.709 286.975
L429.713 286.977
L403.296 324.549
L407.524 327.259
z
" style="fill:#235c96;opacity:0.8;stroke:#235c96;"/>
   </g>
   <g id="patch_130">
    <path clip-path="url(#p0c64b8d497)" d="
M464.483 205.931
L453.227 204.254
L456.18 200.292
L318.44 106.695
L318.443 106.691
L456.183 200.288
L459.135 196.327
z
" style="fill:#235c96;opacity:0.8;stroke:#235c96;"/>
   </g>
   <g id="patch_131">
    <path clip-path="url(#p0c64b8d497)" d="
M319.511 291.938
L330.071 287.857
L329.669 292.704
L420.082 299.544
L420.082 299.548
L329.669 292.709
L329.266 297.556
z
" style="fill:#235c96;opacity:0.8;stroke:#235c96;"/>
   </g>
   <g id="patch_132">
    <path clip-path="url(#p0c64b8d497)" d="
M285.809 232.395
L275.421 227.93
L279.367 224.857
L230.707 167.892
L230.711 167.889
L279.371 224.854
L283.317 221.781
z
" style="fill:#235c96;opacity:0.8;stroke:#235c96;"/>
   </g>
   <g id="patch_133">
    <path clip-path="url(#p0c64b8d497)" d="
M363.377 315.755
L352.886 311.514
L356.759 308.357
L276.713 218.834
L276.717 218.831
L356.763 308.354
L360.636 305.197
z
" style="fill:#235c96;opacity:0.8;stroke:#235c96;"/>
   </g>
   <g id="patch_134">
    <path clip-path="url(#p0c64b8d497)" d="
M538.841 391.838
L527.657 389.77
L530.759 385.913
L371.935 269.446
L371.938 269.442
L530.762 385.91
L533.863 382.053
z
" style="fill:#235c96;opacity:0.8;stroke:#235c96;"/>
   </g>
   <g id="patch_135">
    <path clip-path="url(#p0c64b8d497)" d="
M355.888 349.827
L363.534 341.763
L365.382 346.294
L432.385 321.376
L432.387 321.381
L365.384 346.298
L367.232 350.829
z
" style="fill:#235c96;opacity:0.8;stroke:#235c96;"/>
   </g>
   <g id="patch_136">
    <path clip-path="url(#p0c64b8d497)" d="
M473.577 390.514
L462.443 388.211
L465.634 384.421
L398.147 332.627
L398.151 332.624
L465.637 384.417
L468.827 380.627
z
" style="fill:#235c96;opacity:0.8;stroke:#235c96;"/>
   </g>
   <g id="patch_137">
    <path clip-path="url(#p0c64b8d497)" d="
M377.286 111.986
L388.656 111.31
L386.666 115.786
L425.433 131.501
L425.431 131.505
L386.664 115.79
L384.674 120.266
z
" style="fill:#235c96;opacity:0.8;stroke:#235c96;"/>
   </g>
   <g id="patch_138">
    <path clip-path="url(#p0c64b8d497)" d="
M583.242 248.604
L571.874 247.902
L574.44 243.703
L410.452 152.345
L410.454 152.341
L574.443 243.699
L577.009 239.499
z
" style="fill:#235c96;opacity:0.8;stroke:#235c96;"/>
   </g>
   <g id="patch_139">
    <path clip-path="url(#p0c64b8d497)" d="
M538.841 170.867
L527.764 168.326
L531.043 164.605
L476.25 120.588
L476.254 120.585
L531.046 164.602
L534.324 160.881
z
" style="fill:#235c96;opacity:0.8;stroke:#235c96;"/>
   </g>
   <g id="patch_140">
    <path clip-path="url(#p0c64b8d497)" d="
M496.045 162.928
L489.201 154.233
L494.21 153.358
L491.228 137.788
L491.233 137.787
L494.215 153.357
L499.224 152.483
z
" style="fill:#235c96;opacity:0.8;stroke:#235c96;"/>
   </g>
   <g id="patch_141">
    <path clip-path="url(#p0c64b8d497)" d="
M430.246 93.7923
L441.624 93.2433
L439.579 97.6964
L499.791 122.9
L499.789 122.904
L439.577 97.7008
L437.533 102.154
z
" style="fill:#235c96;opacity:0.8;stroke:#235c96;"/>
   </g>
   <g id="patch_142">
    <path clip-path="url(#p0c64b8d497)" d="
M323.256 170.867
L333.421 175.777
L329.333 178.676
L343.586 196.999
L343.582 197.001
L329.329 178.679
L325.241 181.578
z
" style="fill:#235c96;opacity:0.8;stroke:#235c96;"/>
   </g>
   <g id="patch_143">
    <path clip-path="url(#p0c64b8d497)" d="
M312.557 369.013
L308.416 358.879
L313.487 359.324
L328.068 207.916
L328.073 207.916
L313.492 359.325
L318.563 359.77
z
" style="fill:#235c96;opacity:0.8;stroke:#235c96;"/>
   </g>
   <g id="patch_144">
    <path clip-path="url(#p0c64b8d497)" d="
M487.486 374.967
L476.579 371.827
L480.074 368.291
L399.752 295.909
L399.756 295.906
L480.077 368.287
L483.573 364.751
z
" style="fill:#235c96;opacity:0.8;stroke:#235c96;"/>
   </g>
   <g id="patch_145">
    <path clip-path="url(#p0c64b8d497)" d="
M483.206 242.65
L480.853 253.292
L476.867 250.266
L446.297 286.977
L446.293 286.974
L476.863 250.263
L472.877 247.237
z
" style="fill:#235c96;opacity:0.8;stroke:#235c96;"/>
   </g>
   <g id="patch_146">
    <path clip-path="url(#p0c64b8d497)" d="
M521.188 274.737
L519.905 285.545
L515.636 282.895
L486.953 325.019
L486.949 325.016
L515.632 282.892
L511.363 280.242
z
" style="fill:#235c96;opacity:0.8;stroke:#235c96;"/>
   </g>
   <g id="patch_147">
    <path clip-path="url(#p0c64b8d497)" d="
M488.556 332.625
L477.784 336.166
L478.455 331.347
L425.966 324.689
L425.967 324.684
L478.455 331.342
L479.126 326.522
z
" style="fill:#235c96;opacity:0.8;stroke:#235c96;"/>
   </g>
   <g id="patch_148">
    <path clip-path="url(#p0c64b8d497)" d="
M471.972 243.642
L477.367 253.222
L472.277 253.367
L472.51 260.843
L472.505 260.843
L472.272 253.367
L467.182 253.511
z
" style="fill:#235c96;opacity:0.8;stroke:#235c96;"/>
   </g>
   <g id="patch_149">
    <path clip-path="url(#p0c64b8d497)" d="
M518.513 244.965
L507.295 243.072
L510.33 239.168
L496.579 229.42
L496.582 229.416
L510.333 239.164
L513.369 235.26
z
" style="fill:#235c96;opacity:0.8;stroke:#235c96;"/>
   </g>
   <g id="patch_150">
    <path clip-path="url(#p0c64b8d497)" d="
M240.338 203.616
L239.19 192.794
L243.951 194.519
L271.363 125.548
L271.368 125.549
L243.956 194.52
L248.717 196.246
z
" style="fill:#235c96;opacity:0.8;stroke:#235c96;"/>
   </g>
   <g id="patch_151">
    <path clip-path="url(#p0c64b8d497)" d="
M403.499 140.434
L393.429 145.521
L393.312 140.66
L298.113 142.752
L298.113 142.747
L393.312 140.656
L393.194 135.795
z
" style="fill:#235c96;opacity:0.8;stroke:#235c96;"/>
   </g>
   <g id="patch_152">
    <path clip-path="url(#p0c64b8d497)" d="
M350.003 112.317
L357.147 103.844
L359.267 108.265
L412.057 85.1894
L412.059 85.1939
L359.269 108.269
L361.389 112.69
z
" style="fill:#235c96;opacity:0.8;stroke:#235c96;"/>
   </g>
   <g id="patch_153">
    <path clip-path="url(#p0c64b8d497)" d="
M509.954 289.953
L498.94 287.173
L502.306 283.524
L496.579 278.708
L496.582 278.704
L502.309 283.521
L505.675 279.872
z
" style="fill:#235c96;opacity:0.8;stroke:#235c96;"/>
   </g>
   <g id="patch_154">
    <path clip-path="url(#p0c64b8d497)" d="
M169.19 194.354
L176.054 185.672
L178.317 190.028
L269.759 146.717
L269.762 146.721
L178.319 190.032
L180.582 194.388
z
" style="fill:#235c96;opacity:0.8;stroke:#235c96;"/>
   </g>
   <g id="patch_155">
    <path clip-path="url(#p0c64b8d497)" d="
M497.65 133.488
L499.576 144.209
L494.702 142.801
L482.139 182.446
L482.134 182.444
L494.697 142.799
L489.823 141.391
z
" style="fill:#235c96;opacity:0.8;stroke:#235c96;"/>
   </g>
   <g id="patch_156">
    <path clip-path="url(#p0c64b8d497)" d="
M516.373 117.609
L525.745 111.425
L526.461 116.239
L599.291 106.36
L599.291 106.365
L526.462 116.243
L527.178 121.057
z
" style="fill:#235c96;opacity:0.8;stroke:#235c96;"/>
   </g>
   <g id="patch_157">
    <path clip-path="url(#p0c64b8d497)" d="
M337.699 170.536
L335.697 159.828
L340.581 161.204
L353.746 118.601
L353.75 118.603
L340.585 161.206
L345.47 162.582
z
" style="fill:#235c96;opacity:0.8;stroke:#235c96;"/>
   </g>
   <g id="patch_158">
    <path clip-path="url(#p0c64b8d497)" d="
M429.176 109.34
L418.615 113.418
L419.019 108.571
L368.192 104.711
L368.192 104.706
L419.019 108.566
L419.423 103.719
z
" style="fill:#235c96;opacity:0.8;stroke:#235c96;"/>
   </g>
   <g id="patch_159">
    <path clip-path="url(#p0c64b8d497)" d="
M386.915 133.818
L377.946 127.112
L382.547 125.028
L366.05 91.8086
L366.054 91.8065
L382.552 125.026
L387.153 122.943
z
" style="fill:#235c96;opacity:0.8;stroke:#235c96;"/>
   </g>
   <g id="patch_160">
    <path clip-path="url(#p0c64b8d497)" d="
M249.967 123.895
L258.249 116.425
L259.721 121.079
L361.237 91.8052
L361.238 91.8099
L259.722 121.084
L261.195 125.739
z
" style="fill:#235c96;opacity:0.8;stroke:#235c96;"/>
   </g>
   <g id="patch_161">
    <path clip-path="url(#p0c64b8d497)" d="
M415.268 342.549
L411.897 332.159
L416.922 332.949
L439.873 199.977
L439.878 199.978
L416.927 332.95
L421.951 333.741
z
" style="fill:#235c96;opacity:0.8;stroke:#235c96;"/>
   </g>
   <g id="patch_162">
    <path clip-path="url(#p0c64b8d497)" d="
M512.094 79.899
L502.344 85.5261
L501.937 80.6795
L330.745 93.7947
L330.745 93.7899
L501.937 80.6747
L501.529 75.8281
z
" style="fill:#235c96;opacity:0.8;stroke:#235c96;"/>
   </g>
   <g id="patch_163">
    <path clip-path="url(#p0c64b8d497)" d="
M185.773 343.872
L196.082 348.502
L192.082 351.512
L211.988 375.627
L211.984 375.63
L192.078 351.515
L188.079 354.525
z
" style="fill:#235c96;opacity:0.8;stroke:#235c96;"/>
   </g>
   <g id="patch_164">
    <path clip-path="url(#p0c64b8d497)" d="
M480.532 383.898
L473.847 375.09
L478.871 374.299
L468.76 315.755
L468.765 315.755
L478.876 374.299
L483.901 373.507
z
" style="fill:#235c96;opacity:0.8;stroke:#235c96;"/>
   </g>
   <g id="patch_165">
    <path clip-path="url(#p0c64b8d497)" d="
M363.377 87.5072
L371.026 95.5688
L366.121 96.877
L422.224 288.629
L422.219 288.631
L366.116 96.8783
L361.212 98.1865
z
" style="fill:#235c96;opacity:0.8;stroke:#235c96;"/>
   </g>
   <g id="patch_166">
    <path clip-path="url(#p0c64b8d497)" d="
M245.688 119.594
L257.057 118.905
L255.073 123.383
L312.023 146.386
L312.021 146.391
L255.071 123.387
L253.087 127.865
z
" style="fill:#235c96;opacity:0.8;stroke:#235c96;"/>
   </g>
   <g id="patch_167">
    <path clip-path="url(#p0c64b8d497)" d="
M364.447 94.7847
L360.092 104.836
L356.754 101.164
L287.416 158.63
L287.412 158.626
L356.75 101.16
L353.412 97.4885
z
" style="fill:#235c96;opacity:0.8;stroke:#235c96;"/>
   </g>
   <g id="patch_168">
    <path clip-path="url(#p0c64b8d497)" d="
M285.274 288.63
L296.565 287.182
L294.914 291.782
L404.569 327.661
L404.568 327.666
L294.913 291.786
L293.262 296.386
z
" style="fill:#235c96;opacity:0.8;stroke:#235c96;"/>
   </g>
   <g id="patch_169">
    <path clip-path="url(#p0c64b8d497)" d="
M250.502 319.724
L261.779 318.176
L260.173 322.791
L331.816 345.524
L331.814 345.529
L260.171 322.795
L258.565 327.409
z
" style="fill:#235c96;opacity:0.8;stroke:#235c96;"/>
   </g>
   <g id="patch_170">
    <path clip-path="url(#p0c64b8d497)" d="
M431.851 390.845
L420.472 390.328
L422.963 386.088
L363.911 354.46
L363.913 354.456
L422.965 386.083
L425.457 381.843
z
" style="fill:#235c96;opacity:0.8;stroke:#235c96;"/>
   </g>
   <g id="patch_171">
    <path clip-path="url(#p0c64b8d497)" d="
M415.802 292.599
L412.787 282.11
L417.782 283.055
L440.943 171.528
L440.948 171.529
L417.787 283.056
L422.782 284.002
z
" style="fill:#235c96;opacity:0.8;stroke:#235c96;"/>
   </g>
   <g id="patch_172">
    <path clip-path="url(#p0c64b8d497)" d="
M503.535 391.838
L493.866 386.085
L498.207 383.544
L433.454 282.677
L433.458 282.674
L498.212 383.541
L502.553 381
z
" style="fill:#235c96;opacity:0.8;stroke:#235c96;"/>
   </g>
   <g id="patch_173">
    <path clip-path="url(#p0c64b8d497)" d="
M278.32 196.669
L289.667 197.637
L286.993 201.775
L424.898 283.004
L424.895 283.008
L286.991 201.779
L284.317 205.918
z
" style="fill:#235c96;opacity:0.8;stroke:#235c96;"/>
   </g>
   <g id="patch_174">
    <path clip-path="url(#p0c64b8d497)" d="
M255.317 255.55
L258.559 245.123
L262.277 248.445
L298.111 211.884
L298.115 211.887
L262.281 248.448
L265.999 251.771
z
" style="fill:#235c96;opacity:0.8;stroke:#235c96;"/>
   </g>
   <g id="patch_175">
    <path clip-path="url(#p0c64b8d497)" d="
M280.995 234.38
L273.571 242.631
L271.6 238.148
L252.108 245.96
L252.106 245.955
L271.598 238.143
L269.627 233.66
z
" style="fill:#235c96;opacity:0.8;stroke:#235c96;"/>
   </g>
   <g id="patch_176">
    <path clip-path="url(#p0c64b8d497)" d="
M232.849 270.436
L237.666 260.579
L240.831 264.388
L280.458 234.378
L280.461 234.382
L240.834 264.392
L243.998 268.202
z
" style="fill:#235c96;opacity:0.8;stroke:#235c96;"/>
   </g>
   <g id="patch_177">
    <path clip-path="url(#p0c64b8d497)" d="
M344.654 315.093
L333.329 316.279
L335.097 311.719
L303.462 300.541
L303.463 300.536
L335.099 311.714
L336.866 307.154
z
" style="fill:#235c96;opacity:0.8;stroke:#235c96;"/>
   </g>
   <g id="patch_178">
    <path clip-path="url(#p0c64b8d497)" d="
M290.089 379.598
L281.865 387.126
L280.357 382.482
L239.804 394.486
L239.802 394.482
L280.355 382.477
L278.847 377.833
z
" style="fill:#235c96;opacity:0.8;stroke:#235c96;"/>
   </g>
   <g id="patch_179">
    <path clip-path="url(#p0c64b8d497)" d="
M406.173 358.758
L401.137 349.001
L406.229 349.029
L406.706 269.444
L406.711 269.444
L406.234 349.029
L411.326 349.057
z
" style="fill:#235c96;opacity:0.8;stroke:#235c96;"/>
   </g>
   <g id="patch_180">
    <path clip-path="url(#p0c64b8d497)" d="
M407.243 313.109
L406.568 302.25
L411.249 304.163
L419.545 285.652
L419.549 285.654
L411.254 304.165
L415.936 306.078
z
" style="fill:#235c96;opacity:0.8;stroke:#235c96;"/>
   </g>
   <g id="patch_181">
    <path clip-path="url(#p0c64b8d497)" d="
M504.07 357.435
L499.416 367.364
L496.189 363.603
L459.67 392.17
L459.667 392.166
L496.186 363.599
L492.959 359.838
z
" style="fill:#235c96;opacity:0.8;stroke:#235c96;"/>
   </g>
   <g id="patch_182">
    <path clip-path="url(#p0c64b8d497)" d="
M538.307 227.433
L531.18 235.92
L529.051 231.503
L453.25 264.815
L453.248 264.811
L529.049 231.499
L526.92 227.082
z
" style="fill:#235c96;opacity:0.8;stroke:#235c96;"/>
   </g>
   <g id="patch_183">
    <path clip-path="url(#p0c64b8d497)" d="
M297.578 197.992
L306.581 204.657
L301.991 206.762
L344.656 291.606
L344.652 291.608
L301.986 206.764
L297.396 208.869
z
" style="fill:#235c96;opacity:0.8;stroke:#235c96;"/>
   </g>
   <g id="patch_184">
    <path clip-path="url(#p0c64b8d497)" d="
M367.122 246.95
L357.064 252.058
L356.936 247.197
L312.022 248.275
L312.022 248.271
L356.935 247.192
L356.807 242.331
z
" style="fill:#235c96;opacity:0.8;stroke:#235c96;"/>
   </g>
   <g id="patch_185">
    <path clip-path="url(#p0c64b8d497)" d="
M404.568 247.281
L393.206 248.064
L395.149 243.57
L361.771 230.412
L361.773 230.408
L395.151 243.566
L397.094 239.071
z
" style="fill:#235c96;opacity:0.8;stroke:#235c96;"/>
   </g>
   <g id="patch_186">
    <path clip-path="url(#p0c64b8d497)" d="
M419.012 259.52
L417.021 248.81
L421.904 250.191
L451.642 154.327
L451.647 154.328
L421.908 250.192
L426.791 251.573
z
" style="fill:#235c96;opacity:0.8;stroke:#235c96;"/>
   </g>
   <g id="patch_187">
    <path clip-path="url(#p0c64b8d497)" d="
M537.772 223.133
L526.819 226.127
L527.755 221.347
L485.881 213.873
L485.882 213.868
L527.756 221.342
L528.692 216.563
z
" style="fill:#235c96;opacity:0.8;stroke:#235c96;"/>
   </g>
   <g id="patch_188">
    <path clip-path="url(#p0c64b8d497)" d="
M484.276 330.31
L477.459 321.595
L482.471 320.735
L472.505 267.79
L472.51 267.789
L482.476 320.734
L487.488 319.874
z
" style="fill:#235c96;opacity:0.8;stroke:#235c96;"/>
   </g>
   <g id="patch_189">
    <path clip-path="url(#p0c64b8d497)" d="
M397.614 152.343
L392.072 161.846
L389.2 157.831
L328.607 197.333
L328.604 197.329
L389.197 157.827
L386.326 153.811
z
" style="fill:#235c96;opacity:0.8;stroke:#235c96;"/>
   </g>
   <g id="patch_190">
    <path clip-path="url(#p0c64b8d497)" d="
M386.38 393.822
L379.93 384.856
L384.974 384.186
L355.35 180.791
L355.355 180.791
L384.979 384.185
L390.023 383.516
z
" style="fill:#235c96;opacity:0.8;stroke:#235c96;"/>
   </g>
   <g id="patch_191">
    <path clip-path="url(#p0c64b8d497)" d="
M517.978 248.273
L507.24 244.642
L510.907 241.268
L478.925 209.572
L478.929 209.568
L510.911 241.265
L514.578 237.891
z
" style="fill:#235c96;opacity:0.8;stroke:#235c96;"/>
   </g>
   <g id="patch_192">
    <path clip-path="url(#p0c64b8d497)" d="
M540.981 380.26
L532.678 372.812
L537.457 371.131
L490.693 249.928
L490.698 249.926
L537.461 371.129
L542.24 369.449
z
" style="fill:#235c96;opacity:0.8;stroke:#235c96;"/>
   </g>
   <g id="patch_193">
    <path clip-path="url(#p0c64b8d497)" d="
M549.006 293.592
L537.768 295.376
L539.267 290.729
L493.905 277.385
L493.906 277.381
L539.268 290.725
L540.768 286.078
z
" style="fill:#235c96;opacity:0.8;stroke:#235c96;"/>
   </g>
   <g id="patch_194">
    <path clip-path="url(#p0c64b8d497)" d="
M461.808 338.58
L451.942 333.141
L456.192 330.462
L363.91 197.001
L363.914 196.999
L456.196 330.459
L460.446 327.78
z
" style="fill:#235c96;opacity:0.8;stroke:#235c96;"/>
   </g>
   <g id="patch_195">
    <path clip-path="url(#p0c64b8d497)" d="
M179.889 317.74
L186.238 308.708
L188.75 312.937
L257.455 275.727
L257.458 275.731
L188.753 312.942
L191.265 317.171
z
" style="fill:#235c96;opacity:0.8;stroke:#235c96;"/>
   </g>
   <g id="patch_196">
    <path clip-path="url(#p0c64b8d497)" d="
M316.836 244.634
L320.278 255.004
L315.248 254.245
L309.884 286.645
L309.879 286.645
L315.243 254.244
L310.213 253.485
z
" style="fill:#235c96;opacity:0.8;stroke:#235c96;"/>
   </g>
   <g id="patch_197">
    <path clip-path="url(#p0c64b8d497)" d="
M529.212 94.4539
L528.793 105.324
L524.325 102.991
L474.649 189.724
L474.645 189.721
L524.321 102.989
L519.853 100.656
z
" style="fill:#235c96;opacity:0.8;stroke:#235c96;"/>
   </g>
   <g id="patch_198">
    <path clip-path="url(#p0c64b8d497)" d="
M647.972 166.567
L637.496 170.841
L637.8 165.988
L491.766 157.638
L491.766 157.633
L637.801 165.983
L638.105 161.129
z
" style="fill:#235c96;opacity:0.8;stroke:#235c96;"/>
   </g>
   <g id="patch_199">
    <path clip-path="url(#p0c64b8d497)" d="
M606.245 134.48
L598.328 142.301
L596.636 137.715
L539.377 156.976
L539.376 156.972
L596.634 137.711
L594.942 133.125
z
" style="fill:#235c96;opacity:0.8;stroke:#235c96;"/>
   </g>
   <g id="patch_200">
    <path clip-path="url(#p0c64b8d497)" d="
M406.173 209.901
L411.466 219.533
L406.375 219.628
L407.246 262.166
L407.241 262.166
L406.37 219.628
L401.279 219.723
z
" style="fill:#235c96;opacity:0.8;stroke:#235c96;"/>
   </g>
   <g id="patch_201">
    <path clip-path="url(#p0c64b8d497)" d="
M612.665 191.707
L603.844 198.591
L602.725 193.848
L341.98 249.929
L341.979 249.925
L602.724 193.843
L601.605 189.1
z
" style="fill:#235c96;opacity:0.8;stroke:#235c96;"/>
   </g>
   <g id="patch_202">
    <path clip-path="url(#p0c64b8d497)" d="
M450.574 389.191
L441.938 382.097
L446.635 380.219
L385.843 241.658
L385.847 241.656
L446.64 380.217
L451.336 378.338
z
" style="fill:#235c96;opacity:0.8;stroke:#235c96;"/>
   </g>
   <g id="patch_203">
    <path clip-path="url(#p0c64b8d497)" d="
M604.641 318.401
L593.666 321.321
L594.638 316.548
L422.756 284.663
L422.757 284.658
L594.639 316.543
L595.61 311.77
z
" style="fill:#235c96;opacity:0.8;stroke:#235c96;"/>
   </g>
   <g id="patch_204">
    <path clip-path="url(#p0c64b8d497)" d="
M408.313 253.235
L414.096 243.863
L416.864 247.944
L451.643 226.439
L451.646 226.443
L416.867 247.948
L419.635 252.029
z
" style="fill:#235c96;opacity:0.8;stroke:#235c96;"/>
   </g>
   <g id="patch_205">
    <path clip-path="url(#p0c64b8d497)" d="
M282.064 330.971
L270.746 329.735
L273.526 325.661
L197.541 278.377
L197.543 278.373
L273.529 325.657
L276.31 321.584
z
" style="fill:#235c96;opacity:0.8;stroke:#235c96;"/>
   </g>
   <g id="patch_206">
    <path clip-path="url(#p0c64b8d497)" d="
M511.559 258.858
L502.653 252.075
L507.274 250.031
L500.323 235.704
L500.327 235.702
L507.278 250.029
L511.899 247.986
z
" style="fill:#235c96;opacity:0.8;stroke:#235c96;"/>
   </g>
   <g id="patch_207">
    <path clip-path="url(#p0c64b8d497)" d="
M374.076 256.212
L384.442 251.7
L384.259 256.559
L402.964 257.202
L402.964 257.207
L384.259 256.564
L384.076 261.423
z
" style="fill:#235c96;opacity:0.8;stroke:#235c96;"/>
   </g>
   <g id="patch_208">
    <path clip-path="url(#p0c64b8d497)" d="
M466.623 150.689
L461.089 160.197
L458.214 156.184
L419.014 181.785
L419.011 181.781
L458.211 156.18
L455.336 152.166
z
" style="fill:#235c96;opacity:0.8;stroke:#235c96;"/>
   </g>
   <g id="patch_209">
    <path clip-path="url(#p0c64b8d497)" d="
M581.103 147.712
L572.142 154.429
L571.121 149.665
L498.186 163.923
L498.185 163.918
L571.12 149.661
L570.098 144.897
z
" style="fill:#235c96;opacity:0.8;stroke:#235c96;"/>
   </g>
   <g id="patch_210">
    <path clip-path="url(#p0c64b8d497)" d="
M358.028 311.785
L352.147 302.469
L357.223 302.087
L353.211 253.566
L353.216 253.566
L357.228 302.086
L362.305 301.703
z
" style="fill:#235c96;opacity:0.8;stroke:#235c96;"/>
   </g>
   <g id="patch_211">
    <path clip-path="url(#p0c64b8d497)" d="
M520.118 380.26
L510.76 374.057
L515.228 371.724
L471.435 295.247
L471.44 295.245
L515.232 371.722
L519.7 369.389
z
" style="fill:#235c96;opacity:0.8;stroke:#235c96;"/>
   </g>
   <g id="patch_212">
    <path clip-path="url(#p0c64b8d497)" d="
M493.371 376.621
L483.489 371.208
L487.731 368.518
L430.779 286.646
L430.783 286.644
L487.735 368.515
L491.977 365.825
z
" style="fill:#235c96;opacity:0.8;stroke:#235c96;"/>
   </g>
   <g id="patch_213">
    <path clip-path="url(#p0c64b8d497)" d="
M337.164 257.204
L347.812 261.072
L344.064 264.364
L395.476 317.738
L395.472 317.741
L344.06 264.367
L340.312 267.659
z
" style="fill:#235c96;opacity:0.8;stroke:#235c96;"/>
   </g>
   <g id="patch_214">
    <path clip-path="url(#p0c64b8d497)" d="
M445.225 355.45
L434.206 352.688
L437.565 349.034
L291.692 226.773
L291.695 226.77
L437.569 349.03
L440.928 345.376
z
" style="fill:#235c96;opacity:0.8;stroke:#235c96;"/>
   </g>
   <g id="patch_215">
    <path clip-path="url(#p0c64b8d497)" d="
M488.021 391.838
L476.712 393.152
L478.423 388.572
L403.498 363.061
L403.499 363.056
L478.424 388.567
L480.135 383.988
z
" style="fill:#235c96;opacity:0.8;stroke:#235c96;"/>
   </g>
   <g id="patch_216">
    <path clip-path="url(#p0c64b8d497)" d="
M272.97 258.858
L284.286 257.598
L282.552 262.17
L367.658 291.605
L367.656 291.609
L282.55 262.174
L280.816 266.746
z
" style="fill:#235c96;opacity:0.8;stroke:#235c96;"/>
   </g>
   <g id="patch_217">
    <path clip-path="url(#p0c64b8d497)" d="
M492.836 79.2374
L492.745 90.1146
L488.208 87.9055
L434.528 188.4
L434.524 188.398
L488.204 87.9033
L483.667 85.6942
z
" style="fill:#235c96;opacity:0.8;stroke:#235c96;"/>
   </g>
   <g id="patch_218">
    <path clip-path="url(#p0c64b8d497)" d="
M470.368 238.018
L459.518 234.7
L463.077 231.222
L406.172 178.146
L406.175 178.143
L463.08 231.218
L466.639 227.74
z
" style="fill:#235c96;opacity:0.8;stroke:#235c96;"/>
   </g>
   <g id="patch_219">
    <path clip-path="url(#p0c64b8d497)" d="
M524.398 82.5453
L524.121 93.4197
L519.623 91.1401
L494.978 135.473
L494.973 135.471
L519.618 91.1378
L515.12 88.8583
z
" style="fill:#235c96;opacity:0.8;stroke:#235c96;"/>
   </g>
   <g id="patch_220">
    <path clip-path="url(#p0c64b8d497)" d="
M256.922 90.1536
L268.121 92.1446
L265.049 96.022
L310.953 129.185
L310.95 129.189
L265.046 96.0259
L261.973 99.9033
z
" style="fill:#235c96;opacity:0.8;stroke:#235c96;"/>
   </g>
   <g id="patch_221">
    <path clip-path="url(#p0c64b8d497)" d="
M533.492 143.742
L536.986 154.096
L531.952 153.36
L527.075 183.769
L527.07 183.768
L531.947 153.359
L526.913 152.623
z
" style="fill:#235c96;opacity:0.8;stroke:#235c96;"/>
   </g>
   <g id="patch_222">
    <path clip-path="url(#p0c64b8d497)" d="
M581.103 153.335
L587.846 144.568
L590.169 148.894
L619.618 134.478
L619.62 134.482
L590.171 148.899
L592.494 153.225
z
" style="fill:#235c96;opacity:0.8;stroke:#235c96;"/>
   </g>
   <g id="patch_223">
    <path clip-path="url(#p0c64b8d497)" d="
M286.879 152.343
L296.104 145.96
L296.932 150.758
L316.301 147.709
L316.302 147.714
L296.933 150.763
L297.762 155.56
z
" style="fill:#235c96;opacity:0.8;stroke:#235c96;"/>
   </g>
   <g id="patch_224">
    <path clip-path="url(#p0c64b8d497)" d="
M366.587 218.502
L366.029 229.366
L361.591 226.981
L324.863 289.293
L324.858 289.29
L361.587 226.979
L357.149 224.594
z
" style="fill:#235c96;opacity:0.8;stroke:#235c96;"/>
   </g>
   <g id="patch_225">
    <path clip-path="url(#p0c64b8d497)" d="
M575.753 125.879
L567.304 133.176
L565.938 128.492
L522.259 140.106
L522.257 140.101
L565.936 128.487
L564.57 123.803
z
" style="fill:#235c96;opacity:0.8;stroke:#235c96;"/>
   </g>
   <g id="patch_226">
    <path clip-path="url(#p0c64b8d497)" d="
M371.936 224.787
L382.664 228.447
L378.987 231.811
L407.78 260.511
L407.776 260.514
L378.983 231.814
L375.306 235.178
z
" style="fill:#235c96;opacity:0.8;stroke:#235c96;"/>
   </g>
   <g id="patch_227">
    <path clip-path="url(#p0c64b8d497)" d="
M361.772 355.119
L370.002 347.598
L371.506 352.243
L421.151 337.585
L421.153 337.59
L371.508 352.248
L373.012 356.893
z
" style="fill:#235c96;opacity:0.8;stroke:#235c96;"/>
   </g>
   <g id="patch_228">
    <path clip-path="url(#p0c64b8d497)" d="
M300.253 258.858
L306.248 268.108
L301.177 268.548
L305.605 315.093
L305.6 315.094
L301.172 268.548
L296.101 268.988
z
" style="fill:#235c96;opacity:0.8;stroke:#235c96;"/>
   </g>
   <g id="patch_229">
    <path clip-path="url(#p0c64b8d497)" d="
M246.758 209.901
L255.041 217.368
L250.259 219.038
L287.416 316.085
L287.412 316.087
L250.254 219.04
L245.471 220.709
z
" style="fill:#235c96;opacity:0.8;stroke:#235c96;"/>
   </g>
   <g id="patch_230">
    <path clip-path="url(#p0c64b8d497)" d="
M543.656 188.399
L535.296 195.789
L533.873 191.121
L316.302 251.583
L316.301 251.579
L533.872 191.116
L532.449 186.447
z
" style="fill:#235c96;opacity:0.8;stroke:#235c96;"/>
   </g>
   <g id="patch_231">
    <path clip-path="url(#p0c64b8d497)" d="
M270.83 160.613
L260.305 164.776
L260.666 159.926
L187.913 154.992
L187.913 154.987
L260.667 159.921
L261.027 155.071
z
" style="fill:#235c96;opacity:0.8;stroke:#235c96;"/>
   </g>
   <g id="patch_232">
    <path clip-path="url(#p0c64b8d497)" d="
M547.936 87.1764
L548.66 98.032
L543.969 96.1383
L512.631 166.899
L512.626 166.897
L543.965 96.1364
L539.275 94.2427
z
" style="fill:#235c96;opacity:0.8;stroke:#235c96;"/>
   </g>
   <g id="patch_233">
    <path clip-path="url(#p0c64b8d497)" d="
M461.273 183.768
L461.716 172.899
L466.179 175.241
L472.505 164.25
L472.51 164.253
L466.183 175.243
L470.646 177.585
z
" style="fill:#235c96;opacity:0.8;stroke:#235c96;"/>
   </g>
   <g id="patch_234">
    <path clip-path="url(#p0c64b8d497)" d="
M408.313 134.811
L416.924 141.933
L412.221 143.796
L492.838 329.317
L492.833 329.318
L412.216 143.798
L407.512 145.661
z
" style="fill:#235c96;opacity:0.8;stroke:#235c96;"/>
   </g>
   <g id="patch_235">
    <path clip-path="url(#p0c64b8d497)" d="
M450.574 332.956
L445.117 323.408
L450.206 323.233
L450.037 318.732
L450.042 318.732
L450.211 323.233
L455.3 323.059
z
" style="fill:#235c96;opacity:0.8;stroke:#235c96;"/>
   </g>
   <g id="patch_236">
    <path clip-path="url(#p0c64b8d497)" d="
M456.994 255.22
L447.13 249.777
L451.381 247.1
L408.311 184.762
L408.315 184.759
L451.385 247.097
L455.636 244.42
z
" style="fill:#235c96;opacity:0.8;stroke:#235c96;"/>
   </g>
   <g id="patch_237">
    <path clip-path="url(#p0c64b8d497)" d="
M467.693 127.533
L456.471 129.408
L457.929 124.749
L432.92 117.612
L432.922 117.607
L457.931 124.745
L459.389 120.086
z
" style="fill:#235c96;opacity:0.8;stroke:#235c96;"/>
   </g>
   <g id="patch_238">
    <path clip-path="url(#p0c64b8d497)" d="
M466.623 171.198
L455.901 167.521
L459.584 164.163
L441.478 146.059
L441.482 146.056
L459.588 164.16
L463.271 160.802
z
" style="fill:#235c96;opacity:0.8;stroke:#235c96;"/>
   </g>
   <g id="patch_239">
    <path clip-path="url(#p0c64b8d497)" d="
M297.578 237.688
L302.364 247.559
L297.274 247.413
L295.976 288.63
L295.971 288.63
L297.269 247.412
L292.179 247.266
z
" style="fill:#235c96;opacity:0.8;stroke:#235c96;"/>
   </g>
   <g id="patch_240">
    <path clip-path="url(#p0c64b8d497)" d="
M339.304 240.003
L329.496 245.537
L329.14 240.687
L275.11 244.306
L275.11 244.301
L329.14 240.682
L328.783 235.831
z
" style="fill:#235c96;opacity:0.8;stroke:#235c96;"/>
   </g>
   <g id="patch_241">
    <path clip-path="url(#p0c64b8d497)" d="
M316.301 181.122
L320.1 191.377
L315.046 190.777
L309.884 230.41
L309.879 230.41
L315.041 190.776
L309.988 190.176
z
" style="fill:#235c96;opacity:0.8;stroke:#235c96;"/>
   </g>
   <g id="patch_242">
    <path clip-path="url(#p0c64b8d497)" d="
M382.635 288.961
L375.397 280.561
L380.361 279.477
L367.654 226.441
L367.659 226.44
L380.366 279.476
L385.33 278.392
z
" style="fill:#235c96;opacity:0.8;stroke:#235c96;"/>
   </g>
   <g id="patch_243">
    <path clip-path="url(#p0c64b8d497)" d="
M408.313 190.715
L413.797 200.249
L408.709 200.437
L410.455 243.642
L410.45 243.642
L408.704 200.437
L403.615 200.625
z
" style="fill:#235c96;opacity:0.8;stroke:#235c96;"/>
   </g>
   <g id="patch_244">
    <path clip-path="url(#p0c64b8d497)" d="
M320.581 80.2297
L324.378 90.4855
L319.324 89.8847
L317.909 100.739
L317.904 100.739
L319.319 89.8841
L314.266 89.2833
z
" style="fill:#235c96;opacity:0.8;stroke:#235c96;"/>
   </g>
   <g id="patch_245">
    <path clip-path="url(#p0c64b8d497)" d="
M416.872 298.884
L407.953 292.118
L412.569 290.065
L374.609 212.218
L374.613 212.215
L412.574 290.063
L417.19 288.011
z
" style="fill:#235c96;opacity:0.8;stroke:#235c96;"/>
   </g>
   <g id="patch_246">
    <path clip-path="url(#p0c64b8d497)" d="
M462.878 79.2374
L464.234 90.0377
L459.441 88.3963
L405.106 233.057
L405.101 233.056
L459.436 88.3946
L454.643 86.7533
z
" style="fill:#235c96;opacity:0.8;stroke:#235c96;"/>
   </g>
   <g id="patch_247">
    <path clip-path="url(#p0c64b8d497)" d="
M409.383 82.8761
L418.706 89.1276
L414.225 91.4368
L447.902 151.018
L447.897 151.021
L414.22 91.4392
L409.739 93.7484
z
" style="fill:#235c96;opacity:0.8;stroke:#235c96;"/>
   </g>
   <g id="patch_248">
    <path clip-path="url(#p0c64b8d497)" d="
M382.635 247.281
L373.94 240.253
L378.62 238.339
L356.955 190.054
L356.96 190.052
L378.625 238.337
L383.306 236.422
z
" style="fill:#235c96;opacity:0.8;stroke:#235c96;"/>
   </g>
   <g id="patch_249">
    <path clip-path="url(#p0c64b8d497)" d="
M526.003 146.058
L515.191 149.487
L515.917 144.674
L448.969 135.475
L448.97 135.47
L515.917 144.669
L516.643 139.857
z
" style="fill:#235c96;opacity:0.8;stroke:#235c96;"/>
   </g>
   <g id="patch_250">
    <path clip-path="url(#p0c64b8d497)" d="
M577.358 183.768
L566.099 182.109
L569.044 178.143
L515.302 141.759
L515.305 141.755
L569.047 178.139
L571.993 174.173
z
" style="fill:#235c96;opacity:0.8;stroke:#235c96;"/>
   </g>
   <g id="patch_251">
    <path clip-path="url(#p0c64b8d497)" d="
M379.961 271.098
L377.636 281.747
L373.642 278.73
L357.495 298.224
L357.491 298.221
L373.638 278.727
L369.644 275.711
z
" style="fill:#235c96;opacity:0.8;stroke:#235c96;"/>
   </g>
   <g id="patch_252">
    <path clip-path="url(#p0c64b8d497)" d="
M631.388 310.462
L622.346 317.079
L621.383 312.304
L611.595 314.103
L611.594 314.099
L621.382 312.299
L620.419 307.525
z
" style="fill:#235c96;opacity:0.8;stroke:#235c96;"/>
   </g>
   <g id="patch_253">
    <path clip-path="url(#p0c64b8d497)" d="
M543.656 143.742
L537.202 152.706
L534.739 148.451
L379.427 230.412
L379.424 230.408
L534.737 148.446
L532.273 144.191
z
" style="fill:#235c96;opacity:0.8;stroke:#235c96;"/>
   </g>
   <g id="patch_254">
    <path clip-path="url(#p0c64b8d497)" d="
M425.432 193.361
L418.406 184.798
L423.396 183.828
L419.01 163.259
L419.015 163.259
L423.401 183.827
L428.391 182.857
z
" style="fill:#235c96;opacity:0.8;stroke:#235c96;"/>
   </g>
   <g id="patch_255">
    <path d="
M94.5 48.96
L680.4 48.96" style="fill:none;stroke:#000000;"/>
   </g>
   <g id="patch_256">
    <path d="
M680.4 428.4
L680.4 48.96" style="fill:none;stroke:#000000;"/>
   </g>
   <g id="patch_257">
    <path d="
M94.5 428.4
L680.4 428.4" style="fill:none;stroke:#000000;"/>
   </g>
   <g id="patch_258">
    <path d="
M94.5 428.4
L94.5 48.96" style="fill:none;stroke:#000000;"/>
   </g>
  </g>
  <g id="patch_259">
   <path d="
M119.916 404.078
L654.925 404.078
L654.925 73.2821
L119.916 73.2821
z
" style="fill:none;stroke:#ffffff;"/>
  </g>
  <g id="patch_260">
   <path d="
M119.916 336.5
L199.977 336.5
L199.977 140.86
L119.916 140.86
z
" style="fill:none;stroke:#ffffff;"/>
  </g>
  <g id="patch_261">
   <path d="
M574.864 336.5
L654.925 336.5
L654.925 140.86
L574.864 140.86
z
" style="fill:none;stroke:#ffffff;"/>
  </g>
  <g id="patch_262">
   <path d="
M387.45 289.737
C400.99 289.737 413.978 284.357 423.553 274.783
C433.127 265.208 438.507 252.22 438.507 238.68
C438.507 225.14 433.127 212.152 423.553 202.577
C413.978 193.003 400.99 187.623 387.45 187.623
C373.91 187.623 360.922 193.003 351.347 202.577
C341.773 212.152 336.393 225.14 336.393 238.68
C336.393 252.22 341.773 265.208 351.347 274.783
C360.922 284.357 373.91 289.737 387.45 289.737
z
" style="fill:none;stroke:#ffffff;"/>
  </g>
  <g id="line2d_1">
   <path d="
M387.45 73.2821
L387.45 404.078" style="fill:none;stroke:#ffffff;stroke-linecap:square;"/>
  </g>
 </g>
 <defs>
  <clipPath id="p0c64b8d497">
   <rect height="379.44" width="585.9" x="94.5" y="48.96"/>
  </clipPath>
 </defs>
</svg>
